<svg version="1" xmlns="http://www.w3.org/2000/svg" width="666.667" height="666.667" viewBox="0 0 500.000000 500.000000"><path d="M229.5 39.2c-19 2.1-45.1 9.6-65.2 18.6-60.4 27-105.8 80.8-122.3 144.6-5 19.3-6.4 31.8-6.4 54.6 0 22.7 1.3 34.3 6.4 54.2 21.3 84.4 91.8 148 179.1 161.4 15.9 2.5 48.2 2.5 63.8.1 46.8-7.3 88.3-28.1 121.2-60.7 33.1-32.8 54-72.9 63.1-120.9 3-15.5 3.3-54.9.6-64.6-1-3.3-2.4-10.7-3.3-16.5-2.6-17.4-12.1-42.8-22.4-60.1-14.8-24.9-47.4-60.6-67.6-74.1-34.4-22.9-62.3-32.2-109.1-36.3-18.5-1.6-25.8-1.7-37.9-.3zM279 52.5c17.9 2.9 24.7 6.2 28.6 13.6 3.9 7.6-.6 17.2-10 21.7-4.8 2.3-4.8 2.4-4.4 6.5.6 4.6 6.5 19.6 12.8 32.2 4 8.2 4.4 10 1.1 7.1-2.5-2.2-12.5-22.7-14.5-29.6-.9-3-2.4-6.9-3.4-8.5-1.7-2.7-2.6-3.1-9.6-4.1-5.1-.7-7.9-.7-8.3 0-.7 1-3.9 15.3-4.9 21.7-.5 3-.2 3.9 1.7 5.3 1.3.9 3.1 1.6 4.1 1.6 1.8 0 2.5 2.4 1.1 3.3-1.8 1.1-7.4-2.1-10.7-6.1-4.5-5.5-4.7-9.5-.7-18.3 2.2-4.9 3-8.7 3.6-15.9.4-5.2 1.3-11.1 2.1-13.2 1.1-3.3 1.1-4.7-.6-11-2.4-9.1-2.4-8.9.3-8.3 1.2.2 6.5 1.1 11.7 2zm-90.1 19.1c10.3 2.8 19.5 11.9 22.3 21.8 1.6 6 1.4 15.4-.6 21.3-3.7 10.9-15.5 23.9-27.5 29.9-4.8 2.5-6.8 2.9-13.6 2.9-7.1 0-8.9-.4-14.6-3.2-12.5-6.2-22-19.1-23.9-32.6-.9-5.7-.7-6.7 1.9-12.3 5-10.7 17.9-21.8 30.7-26.3 9.9-3.4 17-3.9 25.3-1.5zM389.8 105c5.7 2 13.3 6.8 14 8.8.2.7-2.4.3-6.5-.9-13.7-3.9-23.4-1.7-32.4 7.4-13.3 13.6-14.6 33.3-3 45.7 9 9.6 20.4 11.7 32 5.9 8.4-4.2 16.3-11.6 19-18 2.5-5.8 2.9-15.5 1.1-24.6-.7-3-.9-5.7-.7-6 .9-.9 6.6 7.7 8.9 13.6 3 7.7 3 18.6-.2 25.9-2.7 6.1-8.3 11.6-11 10.7-1.1-.3-7 .6-13.1 2.1-8.7 2.1-12.7 2.5-17.5 2.1-22.8-2.2-34.2-22.1-29-50.7 1-5.1 1.5-9.9 1.1-10.7-.8-2.3 6.5-8.8 12.7-11.2 7.1-2.7 17-2.7 24.6-.1zm-123.3 32.1c13.3 1.6 24.5 5.2 38 11.9 55.9 27.9 79 95.4 52 151.7-5.8 12.3-11.3 20.2-20.4 29.7-16.9 17.5-34.4 27.4-57.6 32.7-17.4 3.9-42.1 2.5-61.1-3.6-28.6-9-57.4-34.5-66.8-59.2-1.5-3.9-3.7-8-5.1-9.3-3.1-2.9-4.9-10.5-4-17.7.4-3.7 0-9.6-1.1-16.3-4.1-25.6 2.6-50.9 19.6-74 6-8.1 18.4-20.1 27.1-26.3 22.3-15.8 51.6-23 79.4-19.6zm-158.4 21.8c15.7 5.9 22.7 19.5 21.6 42.1-.3 6.3-1 12.8-1.5 14.5-.6 1.6-2 6.4-3.2 10.5-1.3 4.1-2.9 8.8-3.7 10.3l-1.4 2.8-2.6-3.1c-3.5-4.3-5.3-5-26.8-11.4-10.4-3.1-20.3-6.2-21.9-6.8-4.6-1.9-9.6-6.7-9.6-9.4 0-2.8 3.7-12.9 7.4-20.1 2.2-4.5 6.3-8.9 7.3-7.9.2.1-.8 2.3-2.1 4.7-4 7.2-7.9 18.6-7.2 21.3.7 3 3.6 4.1 31.9 12.6 19.8 6 20.8 6.2 23.2 4.6 3.5-2.3 5.5-6.7 7-15.5 2.5-14.2-.4-25.6-8.7-34-8.1-8.2-15.1-10.2-28.4-8.1-10.1 1.6-12.3.7-8.3-3.6 6.2-6.6 15.5-7.8 27-3.5zm280 57.8c1 7.6-.2 7.3 31.2 7.3 30.9 0 31.7-.2 31.7-6.1 0-3.2 1.5-4.5 3.4-3 .8.7 1.2 2.7 1 5.4-2 28.9-2.7 36.6-3.8 45.2-1.5 11.4-5 21-8.6 23.7-2.1 1.5-4.7 1.9-15.5 2.1-12.9.2-13.1.2-19.7-3.1-12.6-6.2-19.8-16.4-21.8-31-.9-6.9.4-12.1 1.4-5.7 1.5 8.5 2.8 13.2 5.4 17.8 8.3 15.4 27.7 21.3 41 12.4 8.4-5.8 13.1-15.1 15.8-32 1.8-10.9 1-13.2-5.6-16.4-4.3-2-5.2-2.1-25.5-1.4-12.7.5-22.2.4-24-.1-1.6-.6-4.5-2.6-6.2-4.6-2.9-3.1-3.3-4.2-3.3-9.4 0-7 2.2-7.7 3.1-1.1zM119 275.9c0 .5-.7 1.4-1.6 2.1-2.3 2-3.5 4.7-2.8 6.4.9 2.2 6.7 3.6 15.4 3.6h7.5l-4 2.5c-7.5 4.6-17.8 2.3-26.8-5.8-4.3-3.9-4.1-4.4 3.8-7.6 5.4-2.2 8.5-2.6 8.5-1.2zm15 41.3c5.8 10.1 11.5 21.7 10.9 22.3-.4.3-2.2-1-4-2.8-3.3-3.3-3.7-3.4-8.9-3-3.6.4-6.6 1.3-8.6 2.9-1.7 1.2-7.6 4.7-13.1 7.8-5.5 3-12.2 7-14.8 9-5.1 3.9-9.4 4.6-11.6 1.9-.8-.9-3.6-2.6-6.2-3.9-5.2-2.4-8.5-5.8-6.7-6.9.6-.4 2.6 1 4.4 3.1 3.2 3.7 3.3 3.8 6.7 2.4 4.8-2 41.9-22.2 45.8-25 3.4-2.4 3.7-4.2 1.6-10.8-1.4-4.1 1.4-2.3 4.5 3zm264.5 9.8c17 8.2 22.5 29.2 13.1 49.4-5.9 12.7-15.1 22-25.7 26-9.9 3.8-24.9-1.3-35.4-11.8-8.1-8.1-10.9-14-10.9-23.1-.1-6 .4-8 3.1-13.5 5.6-11.2 16.9-22.7 26.6-27 9.4-4.2 20.7-4.1 29.2 0zM169 349c0 .5-1 3-2.2 5.6l-2.3 4.6 5.1 4.7c2.8 2.5 7.8 6.1 11 8 14.2 8.2 23.6 15.6 17.7 13.8-1-.3-3.3-1-5.1-1.6-2.9-.9-3.6-.7-6 1.7-2.6 2.6-27.2 39.6-30.1 45.5-1.4 2.6-1.3 2.9 1.9 6.2 2.3 2.4 3.1 3.8 2.4 4.5-1.9 1.9-6.4-2.7-6.4-6.3 0-2.1-1-4.5-2.9-6.8l-3-3.6 3.6-4.9c1.9-2.7 7-10.1 11.3-16.4 4.3-6.3 9.4-13.1 11.4-14.9 3.1-3 3.6-4.1 3.6-8 0-2.9-.7-5.4-1.8-6.7-2.3-2.8-9.6-7.6-15.5-10.2-5.4-2.4-5.5-1.9 1-10.5 4.1-5.3 6.3-7 6.3-4.7zm109.7 32.6c12.5 4.2 15.5 9.9 18.8 36.1 1.3 10.4 2.7 19.7 3.1 20.6.9 2.3 3.6 3.7 7.3 3.7 2 0 3.1.5 3.1 1.4 0 2.2-7.9 2.7-11.5.7-4.9-2.8-6.6-6.9-8.1-20.9-.8-7-1.9-15-2.5-17.9-1.3-6.7-6.1-13.9-11.8-17.5-4.2-2.7-5.2-2.9-11.7-2.5-5.2.3-8.3 1.1-12.1 3.1-11.2 6.1-13.2 14.5-9.7 41.1 2.1 15.9 3.5 18.5 10.4 18.5 3.3 0 4.9 1.8 2.9 3.1-3.9 2.4-13.9-.1-15.3-3.8-.8-2.1-2.3-17.3-3.2-32.3-1.1-17 2.8-26 13.1-31 8.1-3.9 19.6-4.9 27.2-2.4zM139 426c0 .5-.4 1-1 1-.5 0-1-.5-1-1 0-.6.5-1 1-1 .6 0 1 .4 1 1z"/><path d="M277.6 57.4c-.8.7-2 6.3-3 14-1 7.1-2 13.5-2.3 14.3-.4 1 .7 1.4 4.3 1.5 9.2.4 12.4-.1 15.6-2.4 1.8-1.3 4.2-2.8 5.3-3.3 5.1-2.6 1.3-17.8-5.5-21.8-4-2.4-12.6-3.8-14.4-2.3zM166.1 76C155.6 78.2 142 89.5 139 98.6c-3.4 10.1 1.1 24.4 10.2 33 10.6 9.9 24.2 12.6 36.2 7.1 6.8-3.1 16.9-12.8 19.3-18.5 2.7-6.4 2.1-15.9-1.5-23.5-7.1-15.2-22.4-23.7-37.1-20.7zM226 145.1c-21 6-37.6 15.6-51.3 29.8-22.2 23.1-33.2 52.1-31.3 83.1.6 9.9 3.7 25.5 5.5 27.3 1.1 1.1 15.5-2.5 29.4-7.3 6.6-2.3 12.1-3.9 12.3-3.7.8.7-14 6.6-27.6 11-6.9 2.2-12.7 4.2-12.9 4.3-.2.2 1.3 3.8 3.3 8 26.5 55.7 92.2 78.9 147.1 51.9 13-6.4 21.5-12.6 31.4-23 21-22.2 32.3-52.2 30.8-81.9-1.5-29.7-15.8-56.6-42-79.1-9.7-8.4-16.6-12.6-28.1-17-14.1-5.4-20-6.3-39.1-6.3-15.8 0-17.7.2-27.5 2.9zm30.7 4.7c-2.5 2.7-2.4 17.9.1 19.9 1.5 1.3 1.5 1.3-.8.7-1.4-.3-2.6-.8-2.8-.9-.2-.2-.6-3.5-.9-7.4-.4-4.8-.2-7.5.7-8.5.6-.9.9-2 .5-2.6-.9-1.5.4-3 2.7-3 2 0 2 .1.5 1.8zm-33.6 3.5c-.8 1-.6 3 1 7.8 3.3 10.4 4 11.8 5.7 12.1 1 .2-.2.9-2.5 1.5-3.4.9-4.1.8-3.6-.4.7-1.8-3.7-17.5-5.4-18.9-1-.9-.8-1.3 1-2.2 3.3-1.6 5.2-1.5 3.8.1zm-15.3 5.4c-.9 1-1.8 3.8-2.2 6.4l-.7 4.5 6 2.8c3.2 1.6 6.6 2.6 7.5 2.3 3.2-1.3 1.5 1-2.6 3.3-3.2 1.8-4 1.9-3.5.8.4-1.2-.6-2.1-3.7-3.5-2.4-1-5.5-3.2-6.9-4.9l-2.6-3.1 2.5.5c2.4.4 2.5.2 2.2-2.9-.2-2.1-.8-3.3-1.5-3.2-2.2.5-1.4-1.2 1.5-2.9 3.8-2.4 6-2.4 4-.1zm74.1 3.3c.4 0-.2 2-1.3 4.5-2.4 5.2-4.1 5.9-3 1.2.4-1.7.8-4 .8-5 0-1.1.6-1.5 1.4-1.2.7.3 1.7.5 2.1.5zm-83.9 1.4c0 .3-.4.8-1 1.1-.5.3-1 .1-1-.4 0-.6.5-1.1 1-1.1.6 0 1 .2 1 .4zm93.4 3.9c1.6 1.2 1.7 1.5.3 2-.8.3-2.5 2.4-3.8 4.6-1.2 2.3-2.7 4.1-3.2 4.1-1 0 0-3.7 1.9-6.7.8-1.2 1.4-2.9 1.4-3.8 0-1.9 1.1-1.9 3.4-.2zm27.2 9.9c1.6 1.7 2.3 2.8 1.6 2.3-1-.5-3.3 1.2-7.3 5.1-4.7 4.6-5.9 5.4-6.5 4.1-.4-1.1.9-3.4 4-6.9 2.5-2.9 4.6-5.8 4.6-6.5 0-1.8.3-1.7 3.6 1.9zm13.4 15.3c0 .3-.5.3-1.1-.1-1-.6-2.6.3-10.5 6.3-2.6 1.9-3.3 2.1-4.3 1-.9-1.1.1-2.4 4.9-6.1 4-3.2 6-5.4 6-6.9 0-1.8.4-1.6 2.5 1.5 1.4 2 2.5 4 2.5 4.3zM188.8 199c1.1 0 1.2.3.2 1.5s-1.9.8-6.2-2.5c-2.7-2.2-5.5-3.7-6.1-3.3-.7.3-.4-.3.6-1.4 1.7-2 1.8-1.9 5.9 1.9 2.3 2.1 4.8 3.8 5.6 3.8zm-14.4 5.8c.9 1.6 7.9 1.5 9.4 0 2.1-2.1 2.2-.3.2 2.7-1.1 1.7-2 2.4-2 1.7s-1.3-1.2-3-1.2c-2.8 0-2.9.1-1.8 2.5.6 1.4 1.7 2.5 2.4 2.5 1.1 0 1.1.5.2 2.5-1.1 2.5-1.2 2.4-2.7-2.2-1.3-4-2.1-4.9-4.3-5.1-1.5-.2-3.6.2-4.7.8-2 1-2 .9-.9-1.6.7-1.4 1.4-2.1 1.6-1.5.4 1.2 3.5 1.5 4.5.5.9-1-1.2-4.6-2.4-3.9-1.2.8-1.1-.2.3-2.8 1.2-2.1 1.2-2.1 1.8.9.4 1.7 1 3.6 1.4 4.2zm165.1-.4c.9 2.2 1.1 3.5.5 3.1-.6-.4-3.8.5-7.1 1.9-4.2 2-6.4 2.4-7.6 1.8-1.4-.8-.5-1.6 4.6-4.2 3.8-1.8 6.5-3.9 6.8-5.1.7-2.4.8-2.3 2.8 2.5zm-169.9 18.8c1.6-.2 3.9-1 5.2-1.8 2.3-1.5 2.6-1.2 1.3 2.1-.5 1.3-1.7 1.9-3.7 2-3.5 0-3.9 2.4-.7 4 1.3.7 1.9 1.6 1.4 2.4-.5.8-1.5.1-3.2-2.3-1.7-2.5-3.2-3.6-4.9-3.6-1.8 0-2.1-.3-1.1-.9 1.7-1.1.7-4.1-1.3-4.1-.9 0-1.2-.7-.9-2 .5-1.8.8-1.6 2.7 1.3 1.8 2.6 2.8 3.1 5.2 2.9zM333.9 245c3.1 0 6.2-.5 6.9-1.2.9-.9 1.2-.4 1.2 2.6 0 3.5-.1 3.6-1.7 2.1-1.2-1.3-3-1.6-7.5-1.3-5.6.3-5.8.2-5.7-2.2 0-1.4.3-1.9.6-1.3.3.8 2.5 1.3 6.2 1.3zM172 251.6c0 2.4-.4 4.4-1 4.4-.5 0-1-.5-1-1 0-1.1-7 3-7 4.1 0 .3 1.6 1.4 3.5 2.5 3.1 1.6 3.7 1.7 4.5.4.7-1.1 1-.8 1.5 1.2 1.2 4.6-.3 4.9-5.1 1.3-2.5-1.9-5.3-3.5-6.2-3.5-2.3 0-9.2 5.7-9.2 7.6 0 .8-.4 1.4-1 1.4-.5 0-1-2-1-4.4 0-3.7.3-4.3 1.8-3.9 1 .2 2.6-.4 3.5-1.5 1.7-1.8 1.7-2-.9-3.7-2.1-1.4-2.8-1.5-3.5-.4-1.1 1.9-1.7 1-2-3.3-.4-4.2.9-6.4 1.7-3.1.7 2.6 8 7.6 9.7 6.7 3.6-2.1 9.7-7.7 9.7-9 0-.8.5-1.2 1-.9.6.3 1 2.6 1 5.1zm169.4 3.9c-.4 1.6-1.5 2-5.2 2.2l-4.7.2 4-1.5c2.2-.8 4.4-1.9 4.9-2.4 1.3-1.3 1.6-.8 1 1.5zm-.4 9.2c0 1.6-.4 2.3-.8 1.7-.4-.6-1.6-1.6-2.7-2.3-1.9-1.1-1.9-1.2.3-.6 1.3.4 2.2.2 2.2-.4 0-.6.2-1.1.5-1.1s.5 1.2.5 2.7zm-5 22.1c0 .2-.5 1.2-1.1 2.3-.7 1.4-1.4 1.7-2.2 1-.7-.5-3.6-1.2-6.5-1.4-2.9-.2-5.8-.9-6.4-1.5-.9-.9 1.1-1.1 7.5-.9 4.8.1 8.7.3 8.7.5zm-5.6 9.5c.4-.4.4 0 0 1-.3.9-.7 1.7-.9 1.7-.1 0-1.5-1.7-3-3.8l-2.8-3.7 3 2.8c1.6 1.5 3.3 2.4 3.7 2zm-142.4 3c0 .5-.4.5-1 .2-.5-.3-3.1 1-5.6 2.9-2.6 2-5 3.3-5.5 3-.5-.3 1.3-2.3 4.1-4.5 2.7-2.2 5-4.5 5-5.1 0-1.3 2.9 2.2 3 3.5zm4.8 6.5c-.7.3-2.8 1.8-4.5 3.5-2.3 2.1-3.3 2.6-3.3 1.6 0-.9 1.1-2.6 2.5-3.9 1.4-1.3 2.5-3 2.5-3.8 0-1.2.4-1.1 2.1.4 1.5 1.3 1.7 2 .7 2.2zm3.4 9.4c-4.3 4.5-5.6 3.3-1.7-1.7 1.5-2 2.3-4 1.9-4.8-.4-.6.2-.4 1.4.7l2.1 1.8-3.7 4zm113.6 1.2c7 4.2 10 5.5 11.5 5 2-.6 2-.5.8 1-.8.9-2.8 2.6-4.4 3.8-2.8 2-2.9 2-2.3.2.4-1.5-.8-2.7-6.1-5.8-4.6-2.7-6.8-3.5-7.3-2.6-.4.7-1.3-.2-2.3-2.7-1.4-3.6-1.4-5.8.1-4.9.4.2 4.9 2.9 10 6zm-102.4 6.8c-.9 3.5-1.3 7.3-1.1 8.5.2 1.3.1 2.3-.2 2.3-1.2-.1-4.5-3-3.4-3 1.2 0 3-8.7 2-9.7-.3-.3-2 .5-3.7 1.7-1.7 1.2-3.3 2-3.5 1.8-.5-.5 9.5-7.8 10.7-7.8.3 0 0 2.8-.8 6.2zm79.1-1.2c-.4 1.3.8 4.7 3.6 10 3.2 6.1 4.6 8 6.3 8 1.7.1 1.4.4-1.4 2-4.6 2.5-4.5 2.5-4.6-1.3-.1-3.7-6.6-14.9-9.2-15.8-1.4-.5-1-1 1.8-2.8 4.3-2.6 4.3-2.6 3.5-.1zm-54.5 5.8c1.3.6 1.2 1.3-.7 5.2l-2.2 4.5.2-5.2c.1-2.9.4-5.3.7-5.2.3 0 1.2.3 2 .7zm75.8 4.2c2.1.5 2 .7-1.5 3.4-3.6 2.9-3.6 2.9-3 .5.4-1.3.7-3.8.8-5.4 0-2.5.2-2.7.8-1 .4 1.1 1.8 2.2 2.9 2.5zm-66.6-2c.7 0 .7.4 0 1.2-.5.7-1.3 3.2-1.7 5.6-.9 5.7-2 4.4-2-2.4 0-4.1.3-5.3 1.3-4.9.8.3 1.8.5 2.4.5zm13.9 7.2c1.1 4 2.6 7.9 3.3 8.7.9 1.2.8 1.3-.7.8-1-.4-2.6-.7-3.5-.7-1.2 0-1.4-.2-.4-.8.9-.7.9-1.8-.4-5.5-.9-2.6-1.8-4.7-2-4.7-.2 0-1.3 1.8-2.4 4-2 4-3.5 5.5-2.3 2.3 1.3-3.5 5.3-11.3 5.8-11.3.2 0 1.4 3.3 2.6 7.2zM366.2 332.9c-4.9 1.7-9.2 4.5-9.2 6.1 0 .4-1.6 2.4-3.5 4.5-7.9 8.3-10.8 18.4-8.2 27.6 2 6.8 5.2 11.1 11.9 16.2 8.2 6.1 13.2 8 21.8 8.1 6.3.1 8.4-.3 13.1-2.7 6.9-3.3 13.2-9.9 16.7-17.5 3.7-7.9 3.8-18.5.2-25.6-3.3-6.5-11.7-14-18.5-16.5-7-2.6-17-2.7-24.3-.2z"/><path d="M37.6 193.1c-7.8 25.7-10.1 40.8-10.1 67.9 0 23 1.3 34.1 6.1 53.5 19.8 79.7 82.2 142.1 161.9 161.9 19.4 4.8 30.5 6.1 53.5 6.1 22.3 0 33.9-1.3 51.5-5.6 10.3-2.5 24.8-6.9 24.3-7.4-.2-.2-4.4.7-9.3 2-22.2 5.7-33.2 7-61 7-27.7-.1-35.4-.9-55.5-6-10.7-2.7-27.1-8.2-35.6-12-9.8-4.3-40.7-23.3-49.5-30.4-37.5-30.2-64.5-72.3-76.4-119.1-5.1-20.1-5.9-27.8-5.9-55.5-.1-28 1.2-38.8 6.8-60.5 1.3-5.2 2.3-9.6 2.1-9.8-.2-.2-1.5 3.4-2.9 7.9zm28.8 187.8c9.7 14.3 17.7 23.9 30.3 36.2 18 17.6 32.2 27.9 54.8 39.6 7.7 4 13.6 7.3 13.2 7.3-.4 0-6.3-2.7-13-6.1-34.7-17.3-64.7-43.8-86-75.9-6.3-9.5-21.7-39-21.7-41.5 0-.5 3.3 5.7 7.3 14 4.1 8.2 10.8 20.2 15.1 26.4z"/></svg>